<?xml version="1.0" encoding="utf-8"?>
<svg fill="hsl(31 12% 88% / 1)" width="800px" height="800px" viewBox="0 0 24 24" xmlns="http://www.w3.org/2000/svg"><path d="M7,20a1,1,0,0,1-1,1H2a1,1,0,0,1,0-2H6A1,1,0,0,1,7,20ZM6,15H2a1,1,0,0,0,0,2H6a1,1,0,0,0,0-2Zm0-4H2a1,1,0,0,0,0,2H6a1,1,0,0,0,0-2Zm8,8H10a1,1,0,0,0,0,2h4a1,1,0,0,0,0-2Zm0-4H10a1,1,0,0,0,0,2h4a1,1,0,0,0,0-2Zm0-4H10a1,1,0,0,0,0,2h4a1,1,0,0,0,0-2Zm0-4H10a1,1,0,0,0,0,2h4a1,1,0,0,0,0-2Zm0-4H10a1,1,0,0,0,0,2h4a1,1,0,0,0,0-2Zm8,16H18a1,1,0,0,0,0,2h4a1,1,0,0,0,0-2Zm0-4H18a1,1,0,0,0,0,2h4a1,1,0,0,0,0-2Z"/></svg>